<svg xmlns="http://www.w3.org/2000/svg" width="1200" height="680" viewBox="0 0 1200 680" fill="none">
  <rect width="1200" height="680" rx="28" fill="#FCFBF7"/>
  <rect x="28" y="28" width="1144" height="624" rx="24" fill="#FFFDF8" stroke="#D7D0C0" stroke-width="2"/>
  <text x="70" y="92" fill="#1D2527" font-family="Arial, sans-serif" font-size="34" font-weight="700">SECOND evaluation pipeline</text>
  <text x="70" y="130" fill="#556064" font-family="Arial, sans-serif" font-size="20">Semantic labels define binary change, while semantic mode keeps the full label identities for SeK and class-level mIoU.</text>

  <rect x="70" y="180" width="200" height="98" rx="18" fill="#D9ECF5" stroke="#215F7A" stroke-width="2"/>
  <text x="170" y="222" text-anchor="middle" fill="#1D2527" font-family="Arial, sans-serif" font-size="24" font-weight="700">Image A</text>
  <text x="170" y="250" text-anchor="middle" fill="#556064" font-family="Arial, sans-serif" font-size="18">time 1 RGB</text>

  <rect x="70" y="324" width="200" height="98" rx="18" fill="#DCEEE3" stroke="#356C53" stroke-width="2"/>
  <text x="170" y="366" text-anchor="middle" fill="#1D2527" font-family="Arial, sans-serif" font-size="24" font-weight="700">Label A</text>
  <text x="170" y="394" text-anchor="middle" fill="#556064" font-family="Arial, sans-serif" font-size="18">semantic label_t1</text>

  <rect x="70" y="468" width="200" height="98" rx="18" fill="#F8ECD2" stroke="#A96F15" stroke-width="2"/>
  <text x="170" y="510" text-anchor="middle" fill="#1D2527" font-family="Arial, sans-serif" font-size="24" font-weight="700">Binary mask</text>
  <text x="170" y="538" text-anchor="middle" fill="#556064" font-family="Arial, sans-serif" font-size="18">label_t1 != label_t2</text>

  <rect x="350" y="180" width="200" height="98" rx="18" fill="#D9ECF5" stroke="#215F7A" stroke-width="2"/>
  <text x="450" y="222" text-anchor="middle" fill="#1D2527" font-family="Arial, sans-serif" font-size="24" font-weight="700">Image B</text>
  <text x="450" y="250" text-anchor="middle" fill="#556064" font-family="Arial, sans-serif" font-size="18">time 2 RGB</text>

  <rect x="350" y="324" width="200" height="98" rx="18" fill="#DCEEE3" stroke="#356C53" stroke-width="2"/>
  <text x="450" y="366" text-anchor="middle" fill="#1D2527" font-family="Arial, sans-serif" font-size="24" font-weight="700">Label B</text>
  <text x="450" y="394" text-anchor="middle" fill="#556064" font-family="Arial, sans-serif" font-size="18">semantic label_t2</text>

  <rect x="630" y="250" width="250" height="150" rx="24" fill="#F2F0E8" stroke="#B8AD96" stroke-width="2"/>
  <text x="755" y="305" text-anchor="middle" fill="#1D2527" font-family="Arial, sans-serif" font-size="28" font-weight="700">MambaRefine-CD</text>
  <text x="755" y="340" text-anchor="middle" fill="#556064" font-family="Arial, sans-serif" font-size="19">shared encoder</text>
  <text x="755" y="368" text-anchor="middle" fill="#556064" font-family="Arial, sans-serif" font-size="19">D-RBI + decoder</text>

  <rect x="950" y="180" width="170" height="98" rx="18" fill="#D9ECF5" stroke="#215F7A" stroke-width="2"/>
  <text x="1035" y="220" text-anchor="middle" fill="#1D2527" font-family="Arial, sans-serif" font-size="22" font-weight="700">Output</text>
  <text x="1035" y="248" text-anchor="middle" fill="#556064" font-family="Arial, sans-serif" font-size="18">prediction map</text>

  <rect x="920" y="324" width="220" height="180" rx="20" fill="#FFF7E8" stroke="#A96F15" stroke-width="2"/>
  <text x="1030" y="368" text-anchor="middle" fill="#1D2527" font-family="Arial, sans-serif" font-size="26" font-weight="700">Metrics</text>
  <text x="1030" y="404" text-anchor="middle" fill="#556064" font-family="Arial, sans-serif" font-size="19">OA</text>
  <text x="1030" y="434" text-anchor="middle" fill="#556064" font-family="Arial, sans-serif" font-size="19">Fscd</text>
  <text x="1030" y="464" text-anchor="middle" fill="#556064" font-family="Arial, sans-serif" font-size="19">mIoU</text>
  <text x="1030" y="494" text-anchor="middle" fill="#556064" font-family="Arial, sans-serif" font-size="19">SeK</text>

  <path d="M270 229H332" stroke="#556064" stroke-width="4" stroke-linecap="round"/>
  <path d="M550 229H612" stroke="#556064" stroke-width="4" stroke-linecap="round"/>
  <path d="M550 373H612" stroke="#556064" stroke-width="4" stroke-linecap="round"/>
  <path d="M270 373H612" stroke="#556064" stroke-width="4" stroke-linecap="round" stroke-dasharray="8 10"/>
  <path d="M270 517H612" stroke="#556064" stroke-width="4" stroke-linecap="round" stroke-dasharray="8 10"/>
  <path d="M880 229H932" stroke="#556064" stroke-width="4" stroke-linecap="round"/>
  <path d="M880 373H902" stroke="#556064" stroke-width="4" stroke-linecap="round"/>

  <path d="M332 229L314 216" stroke="#556064" stroke-width="4" stroke-linecap="round"/>
  <path d="M332 229L314 242" stroke="#556064" stroke-width="4" stroke-linecap="round"/>
  <path d="M612 229L594 216" stroke="#556064" stroke-width="4" stroke-linecap="round"/>
  <path d="M612 229L594 242" stroke="#556064" stroke-width="4" stroke-linecap="round"/>
  <path d="M612 373L594 360" stroke="#556064" stroke-width="4" stroke-linecap="round"/>
  <path d="M612 373L594 386" stroke="#556064" stroke-width="4" stroke-linecap="round"/>
  <path d="M612 517L594 504" stroke="#556064" stroke-width="4" stroke-linecap="round"/>
  <path d="M612 517L594 530" stroke="#556064" stroke-width="4" stroke-linecap="round"/>
  <path d="M932 229L914 216" stroke="#556064" stroke-width="4" stroke-linecap="round"/>
  <path d="M932 229L914 242" stroke="#556064" stroke-width="4" stroke-linecap="round"/>
  <path d="M902 373L884 360" stroke="#556064" stroke-width="4" stroke-linecap="round"/>
  <path d="M902 373L884 386" stroke="#556064" stroke-width="4" stroke-linecap="round"/>
</svg>
